<svg xmlns="http://www.w3.org/2000/svg" version="1.1" xmlns:xlink="http://www.w3.org/1999/xlink" xmlns:svgjs="http://svgjs.dev/svgjs" viewBox="0 0 800 800"><defs><linearGradient x1="50%" y1="0%" x2="50%" y2="100%" id="uundulate-grad"><stop stop-color="hsl(0, 38%, 94%)" stop-opacity="1" offset="45%"></stop><stop stop-color="hsl(0, 38%, 94%)" stop-opacity="1" offset="100%"></stop></linearGradient></defs><g stroke-width="1" stroke="url(#uundulate-grad)" fill="none"><path d="M876.4734865687908 73.1122566399049C963.7218140151858 286.5342364977406 1114.6378524830604 714.8256230905295 990.3328503888342 909.0149085389965C866.0278482946082 1103.2041939874634 529.4266296507824 1094.6882179020672 279.80947651650683 1005.2208267925475C30.192323382231507 915.7534356830281 -137.31447071732413 735.1898382580164 -207.82948465568938 479.57143121330387C-278.34449859405464 223.95302416859136 -221.03141607552834 -97.792938273755 -58.66259038764815 -221.74752702207098C103.70623530023215 -345.70211577038697 376.72086261354457 -176.8397163748591 571.5408786461358 -115.41059477861438C766.3608946787272 -53.981473182369655 789.2251591223956 -140.30972321793064 876.4734865687908 73.1122566399049C963.7218140151858 286.5342364977406 1114.6378524830604 714.8256230905295 990.3328503888342 909.0149085389965 "></path><path d="M867.1308649964017 79.5218399818691C952.6684409242403 288.7590751366099 1100.6253413829409 708.6525914040499 978.7576922709543 899.0342438045079C856.890043158968 1089.4158962049657 526.888848410119 1081.0669000428127 282.1661492588686 993.3537715040679C37.443450107618105 905.6406429653232 -126.77889704880891 728.6175082349196 -195.9112636550493 478.01122681853485C-265.04363026128976 227.40494540215002 -208.8543336744993 -88.03227267858176 -49.66921045108734 -209.55637929457788C109.51591277232467 -331.08048591057394 377.1773120991015 -165.52911395417408 568.1773278173284 -105.30448493824792C759.1773435355553 -45.07985592232171 781.5932890685633 -129.71539517287164 867.1308649964017 79.5218399818691C952.6684409242403 288.7590751366099 1100.6253413829409 708.6525914040499 978.7576922709543 899.0342438045079 "></path><path d="M857.7882434240128 85.93142332383331C941.6150678332945 290.9839137754793 1086.6128302828208 702.4795597175705 967.1825341530744 889.0535790700194C847.7522380233277 1075.627598422468 524.3510671694557 1067.445582183558 284.5228220012302 981.4867162155881C44.69457683300482 895.5278502476183 -116.24332338029365 722.0451782118228 -183.9930426544093 476.4510224237656C-251.74276192852494 230.85686663570846 -196.67725127347023 -78.27160708340864 -40.675830514526524 -197.36523156708478C115.3255902444173 -316.4588560507609 377.6337615846585 -154.21851153348905 564.8137769885207 -95.19837509788135C751.993792392383 -36.17823866227366 773.9614190147313 -119.12106712781264 857.7882434240128 85.93142332383331C941.6150678332945 290.9839137754793 1086.6128302828208 702.4795597175705 967.1825341530744 889.0535790700194 "></path><path d="M848.445652369202 92.34100666579752C930.5617252599268 293.2087524143486 1072.6003497002794 696.3065280310911 955.6074065527723 879.0729143355306C838.6144634052653 1061.8393006399701 521.8133164463704 1053.8242643243034 286.8795252611701 969.6196609271083C51.94573407596965 885.4150575299134 -105.70771919420031 715.472848188726 -172.0747911361911 474.89081802899636C-238.44186307818194 234.30878786926712 -184.50013835486305 -68.5109414882354 -31.682420060387585 -185.17408383959162C121.13529823408794 -301.8372261909479 378.0902415877937 -142.90790911280396 561.4502566772917 -85.09226525751484C744.8102717667894 -27.276621402225715 766.3295794784772 -108.52673908275364 848.445652369202 92.34100666579752C930.5617252599268 293.2087524143486 1072.6003497002794 696.3065280310911 955.6074065527723 879.0729143355306 "></path><path d="M839.1030002792347 98.7505594901836C919.5083216514029 295.4335605356398 1058.5878080825814 690.1334658270334 944.0322179173143 869.092219083464C829.4766277520471 1048.0509723398943 519.2755046881289 1040.2029159474705 289.2361674859536 957.7525751210503C59.19683028377824 875.3022342946304 -95.17217604326316 708.9004876480508 -160.1566006531292 473.3305831166492C-225.14102526299519 237.76067858524755 -172.32308647141213 -58.75030641064029 -22.689070641404896 -172.98296662967664C126.94494518860233 -287.215626848713 378.54666055577263 -131.59733720969706 558.0866753309058 -74.98618593472645C737.626690106039 -18.375034659755784 758.6976789070668 -97.93244155527282 839.1030002792347 98.7505594901836C919.5083216514029 295.4335605356398 1058.5878080825814 690.1334658270334 944.0322179173143 869.092219083464 "></path><path d="M829.7603787068458 105.16011231456969C908.4549485604571 297.6583686569311 1044.5752969824616 683.9604036229762 932.4570597994343 859.1115238313973C820.3388226164066 1034.2626440398185 516.7377234474657 1026.5815675706376 291.59284022831525 945.8854893149924C66.44795700916495 865.1894110593473 -84.63660237474795 702.3281271073761 -148.23837965248913 471.7703482043021C-211.84015693023036 241.21256930122797 -160.14600407038313 -48.989671333045294 -13.695690704844083 -160.79184941976166C132.75462266069496 -272.594027506478 379.0031100413297 -120.28676530659015 554.7231245020985 -64.88010661193806C730.4431389628671 -9.473447917285966 751.0658088532346 -87.33814402779188 829.7603787068458 105.16011231456969C908.4549485604571 297.6583686569311 1044.5752969824616 683.9604036229762 932.4570597994343 859.1115238313973 "></path><path d="M820.417726616879 111.5697261741119C897.4015449519334 299.8832378133786 1030.562755364764 677.7874024540747 920.881871163976 849.1308896144869C811.2009869631884 1020.4743767748987 514.1999116892242 1012.960280228961 293.9494824530989 934.0184645440909C73.69905321697354 855.0766488592205 -74.10105922381081 695.7558276018572 -136.32018916942724 470.2101743271111C-198.5393191150436 244.66452105236465 -147.9689521869322 -39.22897522029393 -4.702341285861394 -148.60067117469038C138.56426961520947 -257.9723671290869 379.45952900930854 -108.976132368327 551.3595431557128 -54.77396625399342C723.2595573021167 -0.5718001396598993 743.4339082818242 -76.74378546515482 820.417726616879 111.5697261741119C897.4015449519334 299.8832378133786 1030.562755364764 677.7874024540747 920.881871163976 849.1308896144869 "></path><path d="M811.0751660796461 117.97924848091986C886.3482328961438 302.1080154170918 1016.5503052998004 671.6143097324391 909.3067740812523 839.1501638448419C802.0632428627043 1006.6860179572448 511.66219148371727 999.3389013345502 296.3062162306169 922.1513482204548C80.95024097751639 844.9637951063596 -63.565424520139345 689.1834365436043 -124.40190713363091 468.6499088971856C-185.23838974712248 248.11638125076706 -135.7918087507469 -29.468370660276946 4.29109968585567 -136.40958448235352C144.37400812245824 -243.3507983044301 379.91603953002186 -97.66559098279822 547.9960533620615 -44.6679174487831C716.0760671941011 8.329756085231907 735.8020992631482 -66.14951845525206 811.0751660796461 117.97924848091986C886.3482328961438 302.1080154170918 1016.5503052998004 671.6143097324391 909.3067740812523 839.1501638448419 "></path><path d="M801.7324834721007 124.38883182288407C875.2947987700418 304.3328540559611 1002.5377331645243 665.4412780459595 897.7315549282162 829.1694991103532C792.9253766919078 992.8977201747471 509.1243492078976 985.7175834752954 298.66282793782227 910.284292931975C88.20130666774685 834.8510023886545 -53.029911886780326 682.6111065205073 -112.48374716814715 467.08970450241645C-171.9375824495139 251.5683024843256 -123.61478738487409 -19.707705065103823 13.284418587260234 -124.21843675486042C150.1836245593945 -228.72916844461702 380.3724279804226 -86.35498856211314 544.6324414980977 -34.56180760841664C708.8924550157726 17.231373345279962 728.1701681741597 -55.55519041019306 801.7324834721007 124.38883182288407C875.2947987700418 304.3328540559611 1002.5377331645243 665.4412780459595 897.7315549282162 829.1694991103532 "></path><path d="M792.3899229348681 130.79835412969192C864.2414867142525 306.55763165967414 988.525283099561 659.2681853243239 886.1564578454922 819.1887733407084C783.7876325914235 979.1093613570931 506.5866290023905 972.0962045808844 301.01956171534016 898.4171766083389C95.45249442828981 824.7381486357933 -42.49427718310886 676.0387154622545 -100.56546513235082 465.5294390724911C-158.63665308159278 255.02016268272791 -111.43764394868879 -9.947100505086837 22.277859558977298 -112.02735006252351C155.99336306664338 -214.10759961996024 380.8289385011359 -75.04444717658436 541.2689517044464 -24.455758803206322C701.708964907757 26.132929570171655 720.5383591554837 -44.96092340029031 792.3899229348681 130.79835412969192C864.2414867142525 306.55763165967414 988.525283099561 659.2681853243239 886.1564578454922 819.1887733407084 "></path><path d="M783.0473013624792 137.20793747165612C853.1881136233064 308.78247029854356 974.5127719994409 653.0951536378443 874.5812997276121 809.2081086062199C774.6498274557835 965.3210635745954 504.0488477617273 958.4748867216297 303.3762344577019 886.550121319859C102.70362115367652 814.6253559180886 -31.958703514593594 669.4663854391574 -88.64724413171075 463.96923467772194C-145.3357847488279 258.47208391628646 -99.26056154765973 -0.18643490991360068 31.27123949553811 -99.8362023350304C161.803040538736 -199.4859697601472 381.28538798669297 -63.73384475589933 537.905400875639 -14.349648962839808C694.525413764585 35.0345468302196 712.9064891016515 -34.36659535523131 783.0473013624792 137.20793747165612C853.1881136233064 308.78247029854356 974.5127719994409 653.0951536378443 874.5812997276121 809.2081086062199 "></path><path d="M773.7047103076684 143.61752081362033C842.134771049939 311.007308937413 960.5002914168995 646.9221219513649 863.0061721273105 799.2274438717313C765.5120528377211 951.5327657920975 501.5110970386421 944.8535688623751 305.7329377176418 874.6830660313794C109.95477839664136 804.5125632003835 -21.423099328500257 662.8940554160606 -76.72899261349261 462.4090302829528C-132.03488589848496 261.924005149845 -87.08344862905255 9.574230685259579 40.26464994967705 -87.6450546075373C167.61274852840666 -184.8643399003342 381.74186798982805 -52.42324233521424 534.5418805644096 -4.243539122473294C687.341893138991 43.93616409026765 705.2746495653976 -23.77226731017231 773.7047103076684 143.61752081362033C842.134771049939 311.007308937413 960.5002914168995 646.9221219513649 863.0061721273105 799.2274438717313 "></path><path d="M764.3620582177014 150.0270431204283C831.0813674414153 313.232086541126 946.4877497992015 640.7490292297293 851.4309834918522 789.2467181020866C756.3742171845029 937.7444069744436 498.97328528040055 931.2321899679641 308.0895799424252 862.8159497077434C117.20587460444995 794.3997094475224 -10.887556177563113 656.3216643578075 -64.81080213043066 460.84876485302743C-118.7340480832982 265.3758653482473 -74.90639674560163 19.33483524527651 49.25799936865974 -75.45396791520045C173.42239548292105 -170.24277107567735 382.198286957807 -41.11270094968546 531.178299218024 5.86250968273697C680.1583114782409 52.837720315159345 697.6427489939872 -13.17800030026956 764.3620582177014 150.0270431204283C831.0813674414153 313.232086541126 946.4877497992015 640.7490292297293 851.4309834918522 789.2467181020866 "></path><path d="M755.0194366453122 156.4366264623925C820.0279943504693 315.45692517999544 932.4752386990817 634.5759975432497 839.855825373972 779.266053367598C747.2364120488623 923.9561091919459 496.4355040397372 917.6108721087094 310.44625268478694 850.9488944192635C124.45700132983666 784.2869167298177 -0.3519825090479003 649.7493343347107 -52.89258112979064 459.2885604582583C-105.43317975053333 268.82778658180587 -62.72931434457257 29.095500840449745 58.25137930522055 -63.26282018770729C179.23207295501368 -155.62114121586433 382.6547364433641 -29.802098529000432 527.8147483892164 15.968619523103484C672.9747603350688 61.7393375752074 690.0108789401552 -2.5836722552105584 755.0194366453122 156.4366264623925C820.0279943504693 315.45692517999544 932.4752386990817 634.5759975432497 839.855825373972 779.266053367598 "></path><path d="M745.6768455905012 162.8462098043566C808.9746517771018 317.68176381886474 918.46275811654 628.4029658567706 828.2806977736702 769.2853886331093C738.0986374308004 910.167811409448 493.89775331665214 903.9895542494546 312.8029559447268 839.0818391307837C131.7081585728015 774.1741240121125 10.183621677045494 643.1770043116139 -40.97432961157244 457.7283560634892C-92.13228090019038 272.2797078153644 -50.55220142596539 38.856166435622924 67.24478975935949 -51.07167246021419C185.04178094468432 -140.9995113560513 383.11121644649916 -18.491496108315346 524.451228077987 26.07472936347C665.7912397094749 70.64095483525534 682.3790394039011 8.010655789848443 745.6768455905012 162.8462098043566C808.9746517771018 317.68176381886474 918.46275811654 628.4029658567706 828.2806977736702 769.2853886331093 "></path><path d="M736.3342240181123 169.25573211116455C797.921278686156 319.9065414225779 904.4502470164205 622.2298731351348 816.7055396557903 759.3046628634645C728.9608322951599 896.3794525917942 491.3599720759888 890.3681753550438 315.15962868708857 827.2147228071476C138.9592852981882 764.0612702592514 20.719195345560706 636.6046132533606 -29.056108610932426 456.1680906335638C-78.8314125674255 275.7315680137667 -38.37511902493634 48.616770995639854 76.2381696959203 -38.880585767877335C190.85145841677695 -126.37794253139452 383.56766593205623 -7.180954722786566 521.0876772491796 36.18077816868026C658.6076885663028 79.54251106014715 674.7471693500688 18.604922799751193 736.3342240181123 169.25573211116455C797.921278686156 319.9065414225779 904.4502470164205 622.2298731351348 816.7055396557903 759.3046628634645 "></path><path d="M726.9916024457234 175.66531545312864C786.8679055952102 322.1313800614473 890.4377359163007 616.0568414486554 805.1303815379101 749.3239981289757C719.8230271595198 882.5911548092963 488.8221908353254 876.7468574957893 317.5163014294501 815.347667518668C146.21041202357492 753.9484775415467 31.254769014075976 630.032283230264 -17.137887610292353 454.60788623879466C-65.53054423466068 279.18348924732527 -26.198036623907342 58.37743659081309 85.23154963248106 -26.689438040384175C196.66113588886947 -111.75631267158144 384.0241154176133 4.129647697898463 517.724126420372 46.28688800904678C651.424137423131 88.44412832019509 667.1152992962366 29.199250844810194 726.9916024457234 175.66531545312864C786.8679055952102 322.1313800614473 890.4377359163007 616.0568414486554 805.1303815379101 749.3239981289757 "></path><path d="M717.6489808733345 182.07489879509285C775.8145325042647 324.3562187003166 876.4252248161811 609.8838097621759 793.5552234200302 739.3433333944872C710.6852220238793 868.8028570267986 486.28440959466207 863.1255396365345 319.87297417181185 803.480612230188C153.46153874896163 743.8356848238418 41.79034268259119 623.4599532071672 -5.219666609652279 453.0476818440254C-52.2296759018958 282.6354104808838 -14.020954222878288 68.13810218598627 94.22492956904188 -14.498290312891072C202.47081336096198 -97.13468281176841 384.48056490317026 15.440250118583492 514.3605755915646 56.39299784941329C644.2405862799588 97.34574558024315 659.4834292424043 39.79357888986914 717.6489808733345 182.07489879509285C775.8145325042647 324.3562187003166 876.4252248161811 609.8838097621759 793.5552234200302 739.3433333944872 "></path><path d="M708.3063593009456 188.4844211019008C764.7611594133189 326.58099630402967 862.4127137160613 603.7107170405402 781.9800653021503 729.3626076248424C701.5474168882392 855.0144982091447 483.74662835399886 849.5041607421235 322.2296469141736 791.6134959065521C160.71266547434823 733.7228310709804 52.32591635110646 616.8875621489141 6.698554390987738 451.48741641410015C-38.928807569130925 286.0872706792861 -1.843871821849234 77.8987067460032 103.21830950560269 -2.307203620554219C208.2804908330546 -82.51311398711164 384.93701438872733 26.75079150411227 510.99702476275706 66.49904665462361C637.0570351367868 106.24730180513484 651.8515591885721 50.387845899771946 708.3063593009456 188.4844211019008C764.7611594133189 326.58099630402967 862.4127137160613 603.7107170405402 781.9800653021503 729.3626076248424 "></path><path d="M698.9637682461346 194.89400444386501C753.7078168399512 328.8058349428991 848.4002331335196 597.5376853540608 770.4049377018482 719.3819428903537C692.4096422701768 841.2262004266468 481.20887763091366 835.8828428828688 324.58635017411336 779.746440618072C167.96382271731312 723.6100383532757 62.861520537199794 610.3152321258173 18.616805909205937 449.9272120193309C-25.627908718787978 289.5391919128447 10.333241096757945 87.65937234117644 112.21171995974163 9.883944106938884C214.09019882272526 -67.89148412729855 385.39349439186253 38.06139392479736 507.63350445152764 76.60515649499007C629.8735145111929 115.1489190651829 644.2197196523181 60.98217394483089 698.9637682461346 194.89400444386501C753.7078168399512 328.8058349428991 848.4002331335196 597.5376853540608 770.4049377018482 719.3819428903537 "></path><path d="M689.6211161561674 201.30358778582922C742.6544132314275 331.0306735817685 834.3876915158216 591.3646536675813 758.8297490663899 709.4012781558652C683.2718066169585 827.4379026441493 478.6710658726722 822.261525023614 326.9429923988969 767.8793853295924C175.21491892512165 713.4972456355708 73.39706368813694 603.7429021027204 30.53499639226783 448.3670076245619C-12.327070903601225 292.9911131464032 22.510292980208874 97.42003793634962 121.20506937872432 22.075091834432044C219.89984577723976 -53.26985426748553 385.84991335984137 49.37199634548239 504.26992310514197 86.71126633535664C622.6899328504427 124.05053632523084 636.5878190809077 71.57650198988989 689.6211161561674 201.30358778582922C742.6544132314275 331.0306735817685 834.3876915158216 591.3646536675813 758.8297490663899 709.4012781558652 "></path><path d="M680.2785251013566 207.71311009263718C731.6010706580596 333.25545118548155 820.37521093328 585.1915609459456 747.2546214660883 699.4205523862202C674.1340319988964 813.6495438264951 476.1333151495869 808.640146129203 329.29969565883675 756.0122690059566C182.4660761680865 703.3843918827097 83.93266787423028 597.1705110444674 42.45324791048603 446.8067421946364C0.9738279467417783 296.4429733448055 34.68740589881605 107.18064249636654 130.19847983286326 34.2661785267689C225.7095537669104 -38.64828544282875 386.30639336297645 60.682537731011166 500.90640279391255 96.8173151405669C615.5064122248488 132.95209255012264 628.9559795446537 82.17076899979264 680.2785251013566 207.71311009263718C731.6010706580596 333.25545118548155 820.37521093328 585.1915609459456 747.2546214660883 699.4205523862202 "></path><path d="M670.9359035289677 214.12269343460127C720.547697567114 335.48028982435096 806.3626998331604 579.0185292594662 735.6794633482082 689.4398876517316C664.9962268632561 799.8612460439974 473.5955339089237 795.0188282699485 331.6563684011985 744.1452137174765C189.7172028934732 693.2715991650048 94.46824154274555 590.5981810213705 54.371468911126044 445.2465377998674C14.2746962795066 299.8948945783642 46.86448829984511 116.94130809153978 139.19185976942407 46.457326254262C231.51923123900303 -24.026655583015724 386.76284284853364 71.99314015169625 497.5428519651051 106.92342498093342C608.3228610816767 141.85370981017059 621.3241094908215 92.76509704485164 670.9359035289677 214.12269343460127C720.547697567114 335.48028982435096 806.3626998331604 579.0185292594662 735.6794633482082 689.4398876517316 "></path><path d="M661.5932819565787 220.53227677656548C709.4943244761683 337.70512846322026 792.3501887330403 572.8454975729868 724.1043052303281 679.4592229172431C655.8584217276158 786.0729482614995 471.0577526682604 781.3975104106939 334.01304114356014 732.2781584289969C196.9683296188599 683.1588064472998 105.00381521126076 584.0258509982738 66.28968991176612 443.68633340509814C27.575564612271478 303.34681581192274 59.04157070087416 126.70197368671296 148.18523970598483 58.64847398175516C237.32890871109555 -9.405025723202641 387.2192923340906 83.30374257238128 494.1793011362977 117.02953482129993C601.1393099385047 150.75532707021858 613.6922394369892 103.35942508991064 661.5932819565787 220.53227677656548C709.4943244761683 337.70512846322026 792.3501887330403 572.8454975729868 724.1043052303281 679.4592229172431 "></path><path d="M652.2506603841898 226.94179908337333C698.4409513852225 339.9299060669334 778.3376776329208 566.6724048513511 712.5291471124482 669.4784971475983C646.7206165919755 772.2845894438456 468.51997142759706 767.7761315162829 336.3697138859218 720.4110421053606C204.21945634424662 673.0459526944386 115.53938887977603 577.4534599400206 78.20791091240619 442.1260679751729C40.876432945036356 306.79867601032504 71.21865310190321 136.4625782467299 157.17861964254564 70.83956067409201C243.13858618318818 5.2165431014541355 387.67574181964756 94.61428395791006 490.81575030749013 127.1355836265102C593.9557587953327 159.65688329511033 606.060369383157 113.9536920998134 652.2506603841898 226.94179908337333C698.4409513852225 339.9299060669334 778.3376776329208 566.6724048513511 712.5291471124482 669.4784971475983 "></path><path d="M642.9080388118008 233.35138242533753C687.3875782942768 342.15474470580284 764.3251665328012 560.4993731648716 700.953988994568 659.4978324131097C637.5828114563351 758.4962916613476 465.98219018693374 754.1548136570282 338.72638662828354 708.543986816881C211.47058306963328 662.9331599767337 126.07496254829124 570.8811299169238 90.12613191304621 440.56586358040363C54.17730127780118 310.2505972438836 83.39573550293227 146.22324384190313 166.17199957910645 83.03070840158512C248.9482636552807 19.838172961267162 388.13219130520474 105.92488637859509 487.4521994786826 137.2416934668767C586.7722076521607 168.55850055515833 598.4284993293248 124.5480201448724 642.9080388118008 233.35138242533753C687.3875782942768 342.15474470580284 764.3251665328012 560.4993731648716 700.953988994568 659.4978324131097 "></path><path d="M633.5654477569899 239.7609047321455C676.3342357209092 344.3795223095159 750.3126859502595 554.3262804432359 689.3788613942662 649.5171066434649C628.445036838273 744.7079328436939 463.44443946384854 740.5334347626172 341.0830898882234 696.6768704932449C218.72174031259811 652.8203062238725 136.61056673438463 564.3087388586707 102.04438343126441 439.00559815047836C67.47820012814418 313.702457442286 95.57284842153939 155.98384840192006 175.1654100332454 95.22179509392203C254.7579716449514 34.45974178592394 388.5886713083398 117.23542776412387 484.0886791674533 147.34774227208698C579.5886870265667 177.46005678005008 590.7966597930707 135.1422871547751 633.5654477569899 239.7609047321455C676.3342357209092 344.3795223095159 750.3126859502595 554.3262804432359 689.3788613942662 649.5171066434649 "></path><path d="M624.2227956670229 246.1704880741097C665.2808321123853 346.6043609483852 736.3001443325616 548.1532487567565 677.803672758808 639.5364419089763C619.3072011850545 730.919635061196 460.9066277056071 726.9121169033626 343.4397321130069 684.8098152047651C225.9728365204067 642.7075135061676 147.14610988532172 557.7364088355739 113.9625739143263 437.4453937557091C80.77903794333088 317.15437867584455 107.74990030499032 165.74451399709324 184.15875945222808 107.41294282141513C260.56761859946585 49.08137164573702 389.04509027631866 128.54603018480896 480.7250978210677 157.45385211245355C572.4051053658166 186.36167404009808 583.1647592216605 145.7366151998341 624.2227956670229 246.1704880741097C665.2808321123853 346.6043609483852 736.3001443325616 548.1532487567565 677.803672758808 639.5364419089763 "></path><path d="M614.880204612212 252.5800714160739C654.2274895390176 348.8291995872546 722.2876637500199 541.9802170702771 666.2285451585062 629.5557771744877C610.1694265669923 717.1313372786983 458.3688769825219 713.2907990441079 345.7964353729467 672.9427599162852C233.22399376337154 632.5947207884627 157.68171407141512 551.1640788124771 125.8808254325445 435.8851893609401C94.07993679367388 320.6062999094031 119.9270132235975 175.50517959226642 193.15216990636702 119.60409054890823C266.37732658913654 63.70300150555005 389.501570279454 139.85663260549399 477.3615775098383 167.55996195282C565.2215847402226 195.26329130014608 575.5329196854063 156.3309432448931 614.880204612212 252.5800714160739C654.2274895390176 348.8291995872546 722.2876637500199 541.9802170702771 666.2285451585062 629.5557771744877 "></path><path d="M605.5375830398231 258.9895937228818C643.1741164480719 351.05397719096777 708.2751526499002 535.8071243486414 654.6533870406262 619.5750514048428C601.0316214313522 703.3429784610443 455.8310957418587 699.669420149697 348.15310811530844 661.0756435926493C240.4751204887582 622.4818670356017 168.21728773993033 544.591687754224 137.79904643318451 434.3249239310146C107.38080512643876 324.0581601078054 132.10409562462655 185.2657841522834 202.14554984292784 131.79517724124509C272.1870040612291 78.32457033020683 389.95801976501093 151.16717399102276 473.99802668103075 177.66601075803032C558.0380335970506 204.16484752503783 567.9010496315741 166.92521025479584 605.5375830398231 258.9895937228818C643.1741164480719 351.05397719096777 708.2751526499002 535.8071243486414 654.6533870406262 619.5750514048428 "></path><path d="M596.194961467434 265.39917706484596C632.1207433571262 353.2788158298371 694.2626415497805 529.634092662162 643.0782289227461 609.5943866703542C591.8938162957118 689.5546806785466 453.29331450119525 686.0481022904422 350.5097808576701 649.2085883041694C247.7262472141449 612.3690743178967 178.7528614084456 538.0193577311272 149.7172674338246 432.7647195362456C120.68167345920358 327.51008134136396 144.2811780256556 195.02644974745658 211.13892977948865 143.98632496873824C277.9966815333217 92.94620019001985 390.4144692505679 162.47777641170785 470.6344758522232 187.77212059839684C550.8544824538785 213.06646478508583 560.2691795777419 177.51953829985484 596.194961467434 265.39917706484596C632.1207433571262 353.2788158298371 694.2626415497805 529.634092662162 643.0782289227461 609.5943866703542 "></path><path d="M586.8523398950451 271.80876040681017C621.0673702661804 355.5036544687065 680.2501304496607 523.4610609756825 631.5030708048662 599.6137219358657C582.7560111600715 675.7663828960488 450.75553326053205 672.4267844311876 352.86645360003183 637.3415330156897C254.97737393953162 602.2562816001918 189.2884350769608 531.4470277080303 161.63548843446466 431.20451514147635C133.98254179196846 330.9620025749225 156.45826042668466 204.78711534262982 220.13230971604946 156.17747269623135C283.80635900541427 107.56783004983293 390.87091873612496 173.78837883239288 467.27092502341566 197.87823043876335C543.6709313107065 221.96808204513383 552.6373095239097 188.11386634491384 586.8523398950451 271.80876040681017C621.0673702661804 355.5036544687065 680.2501304496607 523.4610609756825 631.5030708048662 599.6137219358657 "></path><path d="M577.5097183226561 278.2183284899853C610.0139971752346 357.7284778487867 666.2376193495409 517.2880140304139 619.927912686986 589.6330419425881C573.6182060244312 661.978069854762 448.2177520198686 658.8054513131437 355.22312634239347 625.4744624684208C262.22850066491833 592.1434736236979 199.82400874547608 524.8746824261444 173.55370943510468 429.64429548791827C147.28341012473334 334.413908549692 168.6353428277137 214.54776567901393 229.12568965261028 168.3686051649354C289.61603647750684 122.1894446508569 391.32736822168204 185.09896599428885 463.9073741946082 207.9843250203408C536.4873801675344 230.86968404639276 545.0054394700776 198.70817913118378 577.5097183226561 278.2183284899853C610.0139971752346 357.7284778487867 666.2376193495409 517.2880140304139 619.927912686986 589.6330419425881 "></path><path d="M568.1670967502671 284.6278507967932C598.960624084289 359.9532554524999 652.2251082494212 511.1149213087783 608.3527545691061 579.6523161729432C564.4804008887909 648.189711037108 445.6799707792054 645.1840724187329 357.5797990847552 613.6073461447847C269.47962739030504 582.0306198708366 210.3595824139913 518.3022913678913 185.47193043574475 428.0840300579928C160.58427845749816 337.8657687480943 180.81242522874277 224.30837023903086 238.1190695891711 180.5596918572723C295.4257139495994 136.81101347551368 391.783817707239 196.40950737981763 460.5438233658008 218.09037382555107C529.3038290243624 239.7712402712845 537.3735694162453 209.30244614108653 568.1670967502671 284.6278507967932C598.960624084289 359.9532554524999 652.2251082494212 511.1149213087783 608.3527545691061 579.6523161729432 "></path><path d="M558.8244904366672 291.0374493975464C587.9072662521323 362.17810935015837 638.2126124080905 504.941904881088 596.7776117100151 569.6716666972436C555.3426110119397 634.4014285133993 443.14220479733103 631.5627698182673 359.9364870859059 601.740306115094C276.7307693744808 571.9178424119209 220.89517134129562 511.7299766035836 197.39016669517383 426.5238409220127C173.8851620490521 341.3177052404419 192.98952288856088 234.0690510929931 247.11246478452097 192.75085484355446C301.235406680481 151.43265859411576 392.24028245158513 207.72012505929177 457.1802877957823 228.19649892470665C522.1202931399794 248.67287279012157 529.7417146212022 219.8967894449346 558.8244904366672 291.0374493975464C587.9072662521323 362.17810935015837 638.2126124080905 504.941904881088 596.7776117100151 569.6716666972436 "></path><path d="M549.4818688642782 297.44698696314344C576.8538931611865 364.4029022126605 624.2001013079707 498.76882741824136 585.202453592135 559.6909561863878C546.2048058762994 620.6130849545343 440.6044235566678 617.9414061826453 362.2931598282676 589.873205050247C283.9818960998675 561.8050039178488 231.43074500981083 505.1576008041195 209.3083876958139 424.9635907508764C187.18603038181698 344.7695806976333 205.16660528958994 243.82967091179916 256.1058447210818 204.94195679468038C307.04508415257357 166.05424267756166 392.6967319371422 219.03068170360962 453.81673696697476 238.30256298870597C514.9367419968073 257.5744442738024 522.1098445673699 230.4910717136264 549.4818688642782 297.44698696314344C576.8538931611865 364.4029022126605 624.2001013079707 498.76882741824136 585.202453592135 559.6909561863878 "></path><path d="M540.1392778094673 303.8565550463186C565.8005505878189 366.6277255927407 610.187620725429 492.5957804729728 573.6273259918332 549.7102761931101C537.0670312582372 606.8247719132476 438.0666728335825 604.3200730646015 364.64986308820744 578.0061345029783C291.2330533428323 551.6921959413548 241.96634919590423 498.58525552223364 221.22663921403205 423.4033710973182C200.48692923215992 348.22148667240276 217.34371820819706 253.59032124818327 265.0992551752207 217.13308926338448C312.85479214224426 180.67585727858562 393.1532119402773 230.34126886550558 450.45321665574534 248.40865757028342C507.7532213712134 266.4760462750613 514.4780050311159 241.08538449989635 540.1392778094673 303.8565550463186C565.8005505878189 366.6277255927407 610.187620725429 492.5957804729728 573.6273259918332 549.7102761931101 "></path><path d="M530.7966257195003 310.2661231294937C554.7471469792952 368.85254897282107 596.1750791077311 486.4227335277044 562.0521373563749 539.7295961998325C527.9291956050188 593.0364588719607 435.5288610753412 590.6987399465579 367.006505312991 566.1390639557094C298.4841495506409 541.5793879648609 252.50189234684132 492.01291024034776 233.144829697094 421.84315144376C213.78776704734668 351.6733926471723 229.520770091648 263.3509715845674 274.09260459420335 229.32422173208852C318.6644390967587 195.2974718796096 393.60963090825624 241.65185602740155 447.0896353093598 258.51475215186093C500.5696397104632 275.37764827632026 506.84610445970554 251.67969728616623 530.7966257195003 310.2661231294937C554.7471469792952 368.85254897282107 596.1750791077311 486.4227335277044 562.0521373563749 539.7295961998325 "></path><path d="M521.4540041471114 316.67569121266877C543.6937738883494 371.0773723529014 582.1625680076115 480.24968658243574 550.476979238495 529.7489162065549C518.7913904693785 579.2481458306738 432.99107983467775 577.0774068285141 369.3631780553527 554.2719934084405C305.73527627602755 531.4665799883669 263.0374660153566 485.4405649584619 245.06305069773407 420.2829317902018C227.08863538011155 355.1252986219418 241.69785249267704 273.11162192095156 283.08598453076416 241.51535420079256C324.4741165688513 209.9190864806336 394.0660803938133 252.96244318929757 443.72608448055223 268.6208467334384C493.38608856729127 284.2792502775792 499.2142344058734 262.27401007243617 521.4540041471114 316.67569121266877C543.6937738883494 371.0773723529014 582.1625680076115 480.24968658243574 550.476979238495 529.7489162065549 "></path><path d="M512.1114130923005 323.08524403705485C532.6404313149817 373.3021804741926 568.1500874250698 474.07662437837826 538.9018516381931 519.7682209544881C509.6536158513163 565.459817530598 430.45332911159267 563.4560584516813 371.7198813152925 542.4049076023825C312.9864335189924 521.3537567530839 273.5730702014499 478.86820441778696 256.9813022159522 418.72269687785456C240.3895342304545 358.5771893379223 253.87496541128422 282.8722569985466 292.0793949849031 253.70647141070754C330.283824558522 224.5406858228685 394.5225603969484 264.2730150924045 440.3625641693229 278.7269260562268C486.20256794169734 293.180837020049 491.5823948696193 272.86830759991705 512.1114130923005 323.08524403705485C532.6404313149817 373.3021804741926 568.1500874250698 474.07662437837826 538.9018516381931 519.7682209544881 "></path><path d="M502.7687915199115 329.49479686144093C521.5870582240359 375.5269885954839 554.13757632495 467.90356217432077 527.326693520313 509.78752570242136C500.515810715676 551.6714892305222 427.91554787092934 549.8347100748485 374.0765540576542 530.5378217963246C320.2375602443791 511.24093351780084 284.1086438699652 472.295843877112 268.8995232165923 417.1624619655073C253.69040256321938 362.0290800539027 266.0520478123133 292.6328920761417 301.0727749214639 265.89758862062257C336.09350203061456 239.1622851651034 394.97900988250547 275.5835869955114 436.9990133405154 288.83300537901516C479.0190167985253 302.08242376251894 483.95052481578705 283.4626051273979 502.7687915199115 329.49479686144093C521.5870582240359 375.5269885954839 554.13757632495 467.90356217432077 527.326693520313 509.78752570242136 "></path><path d="M493.42618520631163 335.9043802034051C510.5337003918793 377.75182723435324 540.1250804836194 461.7305304878412 515.7515506612222 499.80686096793283C491.3780208388248 537.8831914480244 425.3777818890551 536.2133922155938 376.433242058805 518.6707665078449C327.48870222855487 501.12814080009593 294.64423279726947 465.7235138540152 280.81775947602137 415.6022575707382C266.9912861547733 365.48100128746125 278.2291454721314 302.3935576713149 310.0661701168138 278.0887363481157C341.9031947614962 253.78391502491644 395.43547462685154 286.8941894161964 433.6354777704969 298.9391152193817C471.8354809141423 310.9840410225669 476.31867002074387 294.0569331724569 493.42618520631163 335.9043802034051C510.5337003918793 377.75182723435324 540.1250804836194 461.7305304878412 515.7515506612222 499.80686096793283 "></path><path d="M484.0835636339226 342.3139330277911C499.4803273009336 379.9766353556445 526.1125693834997 455.5574682837837 504.1763925433421 489.8261657158662C482.2402157031845 524.0948631479486 422.84000064839177 522.5920438387609 378.7899148011667 506.8036807017869C334.7398289539416 491.0153175648129 305.17980646578474 459.15115331334016 292.73598047666144 414.0420226583909C280.29215448753814 368.9328920034417 290.40622787316045 312.15419274890996 319.0595500533746 290.27985355803065C347.71287223358877 268.4055143671514 395.89192411240856 298.2047613193034 430.27192694168946 309.04519454217007C464.65192977097024 319.88562776503676 468.68679996691174 304.6512306999378 484.0835636339226 342.3139330277911C499.4803273009336 379.9766353556445 526.1125693834997 455.5574682837837 504.1763925433421 489.8261657158662 "></path><path d="M474.7409420615336 348.7234858521772C488.4269542099878 382.2014434769357 512.1000582833799 449.3844060797262 492.60123442546205 479.8454704637993C473.1024105675442 510.3065348478726 420.30221940772844 508.97069546192813 381.1465875435283 494.93659489572894C341.9909556793283 480.9024943295299 315.71538013429995 452.5787927726652 304.65420147730146 412.48178774604366C293.593022820303 372.3847827194221 302.5833102741895 321.914827826505 328.0529299899354 302.4709707679457C353.52254970568134 283.0271137093863 396.34837359796563 309.5153332224103 426.9083761128819 319.15127386495845C457.4683786277982 328.78721450750663 461.0549299130795 315.2455282274187 474.7409420615336 348.7234858521772C488.4269542099878 382.2014434769357 512.1000582833799 449.3844060797262 492.60123442546205 479.8454704637993 "></path><path d="M465.3983204891447 355.1330691941414C477.3735811190421 384.42628211580507 498.0875471832601 443.21137439324673 481.026076307582 469.8648057293108C463.9646054319039 496.51823706537493 417.7644381670651 495.3493776026735 383.50326028589006 483.0695396072492C349.242082404715 470.78970161182497 326.2509538028152 446.0064627495684 316.57242247794153 410.92158335127453C306.89389115306784 375.83670395298066 314.76039267521855 331.67549342167825 337.04630992649624 314.6621184954388C359.3322271777739 297.6487435691993 396.80482308352265 320.8259356430953 423.5448252840744 329.25738370532497C450.28482748462613 337.68883176755463 453.4230598592473 325.8398562724777 465.3983204891447 355.1330691941414C477.3735811190421 384.42628211580507 498.0875471832601 443.21137439324673 481.026076307582 469.8648057293108 "></path><path d="M456.0556989167557 361.5426220185274C466.3202080280963 386.6510902370963 484.0750360831404 437.0383121891891 469.450918189702 459.88411047724406C454.8268002962636 482.729908765299 415.2266569264018 481.7280292258406 385.8599330282517 471.20245380119127C356.49320913010166 460.67687837654194 336.78652747133043 439.4341022088935 328.4906434785816 409.3613484389273C320.1947594858327 379.28859466896114 326.9374750762476 341.4361284992733 346.03968986305705 326.85323570535377C365.1419046498665 312.2703429114342 397.26127256907967 332.1365075462022 420.18127445526693 339.36346302811336C443.10127634145414 346.5904185100245 445.7911898054151 336.43415379995855 456.0556989167557 361.5426220185274C466.3202080280963 386.6510902370963 484.0750360831404 437.0383121891891 469.450918189702 459.88411047724406 "></path><path d="M446.71307734436675 367.9521901017025C455.2668349371506 388.8759136171766 470.06252498302064 430.8652652439206 457.875760071822 449.9034304839664C445.68899516062334 468.9415957240122 412.6888756857385 468.1066961077969 388.2166057706134 459.33538325392243C363.7443358554884 450.56407040004797 347.3221011398457 432.8617569270076 340.4088644792216 407.8011287853691C333.4956278185976 382.7405006437306 339.1145574772766 351.1967788356574 355.0330697996178 339.04436817405787C370.95158212195906 326.89195751245825 397.71772205463674 343.44709470809823 416.8177236264594 349.4695576096908C435.9177251982821 355.49202051128344 438.15931975158287 347.02846658622843 446.71307734436675 367.9521901017025C455.2668349371506 388.8759136171766 470.06252498302064 430.8652652439206 457.875760071822 449.9034304839664 "></path><path d="M437.37045577197773 374.3617429260886C444.21346184620484 391.1007217384679 456.0500138829009 424.6922030398631 446.30060195394196 439.92273523189965C436.55119002498304 455.1532674239363 410.15109444507516 454.48534773096407 390.5732785129751 447.4682974478645C370.9954625808751 440.45124716476494 357.8576748083609 426.2893963863326 352.3270854798617 406.24089387302183C346.7964961513624 386.19239135971105 351.29163987830566 360.95741391325254 364.0264497361786 351.23548538397284C376.7612595940516 341.51355685469315 398.17417154019375 354.75766661120514 413.4541727976519 359.57563693247926C428.73417405511003 364.3936072537533 430.5274496977507 357.6227641137093 437.37045577197773 374.3617429260886C444.21346184620484 391.1007217384679 456.0500138829009 424.6922030398631 446.30060195394196 439.92273523189965 "></path><path d="M428.02786471716695 380.77131100926374C433.1601192728372 393.3255451185482 442.03753330035926 418.51915609459456 434.72547435364004 429.94205523862206C427.4134154069209 441.3649543826495 407.61334372198996 440.8640146129203 392.9299817729149 435.60122690059563C378.2466198238399 430.33843918827097 368.3932789944543 419.71705110444674 364.24533699807984 404.68067421946364C360.0973950017054 389.64429733448054 363.46875279691284 370.71806424963665 373.01986019031756 363.4266178526769C382.5709675837223 356.1351714557171 398.6306515433289 366.0682537731011 410.0906524864225 369.6817315140567C421.55065342951616 373.29520925501225 422.8956101614966 368.21707689997925 428.02786471716695 380.77131100926374C433.1601192728372 393.3255451185482 442.03753330035926 418.51915609459456 434.72547435364004 429.94205523862206 "></path><path d="M418.68522788598887 387.18087909243883C422.1067309231024 395.5503684986285 428.02500694145044 412.3461091493261 423.150300976971 419.96137524534436C418.2755950124915 427.5766413413627 405.0755472225376 427.2426814948766 395.28663925648755 423.7341563533268C385.4977312904375 420.225631211777 378.92883740418046 413.14470582256087 376.16354273993085 403.12045456590545C373.39824807568124 393.0962033092501 375.64581993915283 380.47871458602077 382.0132248680893 375.6177503213809C388.3806297970258 370.7567860567411 399.08708577009685 377.3788409349971 406.7270863988259 379.78782609563416C414.36708702755504 382.1968112562712 415.26372484887537 378.8113896862492 418.68522788598887 387.18087909243883C422.1067309231024 395.5503684986285 428.02500694145044 412.3461091493261 423.150300976971 419.96137524534436 "></path><path d="M409.34262157238896 393.5904471756139C411.05337309094574 397.77519187870877 414.01251110011975 406.17306220405754 411.57515811788005 409.9806952520667C409.1378051356403 413.7883283000759 402.5377812406633 413.6213483768328 397.6433272576383 411.8670858060579C392.7488732746133 410.11282323528303 389.4644263314848 406.57236054067494 388.0817789993599 401.56023491234725C386.6991316672351 396.5481092840196 387.82291759897095 390.23936492240495 391.0066200634392 387.808882790085C394.1903225279074 385.3784006577651 399.543550514443 388.6894280968931 403.3635508288075 389.8939206772116C407.18355114317205 391.0984132575301 407.6318700538322 389.4057024725191 409.34262157238896 393.5904471756139C411.05337309094574 397.77519187870877 414.01251110011975 406.17306220405754 411.57515811788005 409.9806952520667 "></path></g></svg>